<mxfile host="app.diagrams.net" modified="2020-09-27T15:33:00.004Z" agent="5.0 (Windows NT 10.0; Win64; x64) AppleWebKit/537.36 (KHTML, like Gecko) Chrome/85.0.4183.121 Safari/537.36" etag="0W8lDbQ2SwfLZZ26ppby" version="13.7.5" type="github">
  <diagram name="Eureka" id="42789a77-a242-8287-6e28-9cd8cfd52e62">
    <mxGraphModel dx="1038" dy="548" grid="1" gridSize="10" guides="1" tooltips="1" connect="1" arrows="1" fold="1" page="1" pageScale="1" pageWidth="1100" pageHeight="850" background="#ffffff" math="0" shadow="0">
      <root>
        <mxCell id="0" />
        <mxCell id="1" parent="0" />
        <mxCell id="KWstcczz9pRLR9bCZHfC-11" value="主从复制" style="swimlane;" vertex="1" parent="1">
          <mxGeometry x="210" y="300" width="720" height="480" as="geometry" />
        </mxCell>
        <mxCell id="KWstcczz9pRLR9bCZHfC-14" style="edgeStyle=orthogonalEdgeStyle;rounded=0;orthogonalLoop=1;jettySize=auto;html=1;" edge="1" parent="KWstcczz9pRLR9bCZHfC-11" source="KWstcczz9pRLR9bCZHfC-8" target="KWstcczz9pRLR9bCZHfC-9">
          <mxGeometry relative="1" as="geometry" />
        </mxCell>
        <mxCell id="KWstcczz9pRLR9bCZHfC-15" style="edgeStyle=orthogonalEdgeStyle;rounded=0;orthogonalLoop=1;jettySize=auto;html=1;" edge="1" parent="KWstcczz9pRLR9bCZHfC-11" source="KWstcczz9pRLR9bCZHfC-8" target="KWstcczz9pRLR9bCZHfC-10">
          <mxGeometry relative="1" as="geometry" />
        </mxCell>
        <mxCell id="KWstcczz9pRLR9bCZHfC-8" value="server01（主）" style="rounded=0;whiteSpace=wrap;html=1;" vertex="1" parent="KWstcczz9pRLR9bCZHfC-11">
          <mxGeometry x="230" y="60" width="120" height="60" as="geometry" />
        </mxCell>
        <mxCell id="KWstcczz9pRLR9bCZHfC-9" value="service02" style="rounded=0;whiteSpace=wrap;html=1;" vertex="1" parent="KWstcczz9pRLR9bCZHfC-11">
          <mxGeometry x="20" y="170" width="120" height="60" as="geometry" />
        </mxCell>
        <mxCell id="KWstcczz9pRLR9bCZHfC-10" value="service03" style="rounded=0;whiteSpace=wrap;html=1;" vertex="1" parent="KWstcczz9pRLR9bCZHfC-11">
          <mxGeometry x="450" y="180" width="120" height="60" as="geometry" />
        </mxCell>
        <mxCell id="KWstcczz9pRLR9bCZHfC-17" value="数据同步" style="text;html=1;align=center;verticalAlign=middle;resizable=0;points=[];autosize=1;" vertex="1" parent="KWstcczz9pRLR9bCZHfC-11">
          <mxGeometry x="450" y="125" width="60" height="20" as="geometry" />
        </mxCell>
        <mxCell id="KWstcczz9pRLR9bCZHfC-16" value="数据同步" style="text;html=1;align=center;verticalAlign=middle;resizable=0;points=[];autosize=1;" vertex="1" parent="KWstcczz9pRLR9bCZHfC-11">
          <mxGeometry x="60" y="125" width="60" height="20" as="geometry" />
        </mxCell>
        <mxCell id="KWstcczz9pRLR9bCZHfC-20" style="edgeStyle=orthogonalEdgeStyle;rounded=0;orthogonalLoop=1;jettySize=auto;html=1;" edge="1" parent="KWstcczz9pRLR9bCZHfC-11" source="KWstcczz9pRLR9bCZHfC-19" target="KWstcczz9pRLR9bCZHfC-8">
          <mxGeometry relative="1" as="geometry" />
        </mxCell>
        <mxCell id="KWstcczz9pRLR9bCZHfC-19" value="client" style="ellipse;whiteSpace=wrap;html=1;" vertex="1" parent="KWstcczz9pRLR9bCZHfC-11">
          <mxGeometry x="230" y="270" width="120" height="80" as="geometry" />
        </mxCell>
        <mxCell id="KWstcczz9pRLR9bCZHfC-13" value="ap架构" style="whiteSpace=wrap;html=1;" vertex="1" parent="1">
          <mxGeometry x="80" y="50" width="120" height="60" as="geometry" />
        </mxCell>
        <mxCell id="KWstcczz9pRLR9bCZHfC-21" value="注册，续约，注销" style="text;html=1;align=center;verticalAlign=middle;resizable=0;points=[];autosize=1;" vertex="1" parent="1">
          <mxGeometry x="465" y="500" width="110" height="20" as="geometry" />
        </mxCell>
        <mxCell id="KWstcczz9pRLR9bCZHfC-22" value="Peer to Peer （对等模式）" style="swimlane;" vertex="1" parent="1">
          <mxGeometry x="150" y="840" width="910" height="740" as="geometry" />
        </mxCell>
        <mxCell id="KWstcczz9pRLR9bCZHfC-23" value="&lt;span style=&quot;color: rgb(18 , 18 , 18) ; font-family: , &amp;#34;blinkmacsystemfont&amp;#34; , &amp;#34;helvetica neue&amp;#34; , &amp;#34;pingfang sc&amp;#34; , &amp;#34;microsoft yahei&amp;#34; , &amp;#34;source han sans sc&amp;#34; , &amp;#34;noto sans cjk sc&amp;#34; , &amp;#34;wenquanyi micro hei&amp;#34; , sans-serif ; font-size: medium ; background-color: rgb(255 , 255 , 255)&quot;&gt;对等复制模式，任何副本都可以接收写请求，不存在写压力瓶颈，但各个副本间数据同步时可能产生数据冲突。&lt;/span&gt;" style="text;html=1;align=center;verticalAlign=middle;resizable=0;points=[];autosize=1;" vertex="1" parent="KWstcczz9pRLR9bCZHfC-22">
          <mxGeometry x="-10" y="50" width="800" height="20" as="geometry" />
        </mxCell>
        <mxCell id="KWstcczz9pRLR9bCZHfC-24" value="&lt;span&gt;server03&lt;/span&gt;" style="rounded=0;whiteSpace=wrap;html=1;" vertex="1" parent="KWstcczz9pRLR9bCZHfC-22">
          <mxGeometry x="320" y="290" width="120" height="60" as="geometry" />
        </mxCell>
        <mxCell id="KWstcczz9pRLR9bCZHfC-29" style="edgeStyle=orthogonalEdgeStyle;rounded=0;orthogonalLoop=1;jettySize=auto;html=1;entryX=0;entryY=0.5;entryDx=0;entryDy=0;" edge="1" parent="KWstcczz9pRLR9bCZHfC-22" source="KWstcczz9pRLR9bCZHfC-25" target="KWstcczz9pRLR9bCZHfC-26">
          <mxGeometry relative="1" as="geometry" />
        </mxCell>
        <mxCell id="KWstcczz9pRLR9bCZHfC-43" style="edgeStyle=orthogonalEdgeStyle;rounded=0;orthogonalLoop=1;jettySize=auto;html=1;fillColor=#f8cecc;strokeColor=#b85450;" edge="1" parent="KWstcczz9pRLR9bCZHfC-22" source="KWstcczz9pRLR9bCZHfC-25" target="KWstcczz9pRLR9bCZHfC-24">
          <mxGeometry relative="1" as="geometry">
            <Array as="points">
              <mxPoint x="240" y="280" />
              <mxPoint x="380" y="280" />
            </Array>
          </mxGeometry>
        </mxCell>
        <mxCell id="KWstcczz9pRLR9bCZHfC-25" value="server01" style="rounded=0;whiteSpace=wrap;html=1;" vertex="1" parent="KWstcczz9pRLR9bCZHfC-22">
          <mxGeometry x="130" y="130" width="120" height="60" as="geometry" />
        </mxCell>
        <mxCell id="KWstcczz9pRLR9bCZHfC-31" style="edgeStyle=orthogonalEdgeStyle;rounded=0;orthogonalLoop=1;jettySize=auto;html=1;entryX=1;entryY=0.5;entryDx=0;entryDy=0;" edge="1" parent="KWstcczz9pRLR9bCZHfC-22" source="KWstcczz9pRLR9bCZHfC-26" target="KWstcczz9pRLR9bCZHfC-24">
          <mxGeometry relative="1" as="geometry">
            <Array as="points">
              <mxPoint x="610" y="320" />
            </Array>
          </mxGeometry>
        </mxCell>
        <mxCell id="KWstcczz9pRLR9bCZHfC-26" value="&lt;span&gt;server02&lt;/span&gt;" style="rounded=0;whiteSpace=wrap;html=1;" vertex="1" parent="KWstcczz9pRLR9bCZHfC-22">
          <mxGeometry x="520" y="130" width="120" height="60" as="geometry" />
        </mxCell>
        <mxCell id="KWstcczz9pRLR9bCZHfC-30" value="请求" style="text;html=1;align=center;verticalAlign=middle;resizable=0;points=[];autosize=1;" vertex="1" parent="KWstcczz9pRLR9bCZHfC-22">
          <mxGeometry x="330" y="170" width="40" height="20" as="geometry" />
        </mxCell>
        <mxCell id="KWstcczz9pRLR9bCZHfC-32" value="请求" style="text;html=1;align=center;verticalAlign=middle;resizable=0;points=[];autosize=1;" vertex="1" parent="KWstcczz9pRLR9bCZHfC-22">
          <mxGeometry x="500" y="300" width="40" height="20" as="geometry" />
        </mxCell>
        <mxCell id="KWstcczz9pRLR9bCZHfC-34" style="edgeStyle=orthogonalEdgeStyle;rounded=0;orthogonalLoop=1;jettySize=auto;html=1;entryX=0.5;entryY=1;entryDx=0;entryDy=0;" edge="1" parent="KWstcczz9pRLR9bCZHfC-22" source="KWstcczz9pRLR9bCZHfC-33" target="KWstcczz9pRLR9bCZHfC-24">
          <mxGeometry relative="1" as="geometry" />
        </mxCell>
        <mxCell id="KWstcczz9pRLR9bCZHfC-36" style="edgeStyle=orthogonalEdgeStyle;rounded=0;orthogonalLoop=1;jettySize=auto;html=1;entryX=0;entryY=0.5;entryDx=0;entryDy=0;" edge="1" parent="KWstcczz9pRLR9bCZHfC-22" source="KWstcczz9pRLR9bCZHfC-33" target="KWstcczz9pRLR9bCZHfC-25">
          <mxGeometry relative="1" as="geometry" />
        </mxCell>
        <mxCell id="KWstcczz9pRLR9bCZHfC-37" style="edgeStyle=orthogonalEdgeStyle;rounded=0;orthogonalLoop=1;jettySize=auto;html=1;entryX=1;entryY=0.25;entryDx=0;entryDy=0;" edge="1" parent="KWstcczz9pRLR9bCZHfC-22" source="KWstcczz9pRLR9bCZHfC-33" target="KWstcczz9pRLR9bCZHfC-26">
          <mxGeometry relative="1" as="geometry" />
        </mxCell>
        <mxCell id="KWstcczz9pRLR9bCZHfC-33" value="client" style="ellipse;whiteSpace=wrap;html=1;" vertex="1" parent="KWstcczz9pRLR9bCZHfC-22">
          <mxGeometry x="320" y="470" width="120" height="80" as="geometry" />
        </mxCell>
        <mxCell id="KWstcczz9pRLR9bCZHfC-35" value="注册，续约，注销" style="text;html=1;align=center;verticalAlign=middle;resizable=0;points=[];autosize=1;" vertex="1" parent="KWstcczz9pRLR9bCZHfC-22">
          <mxGeometry x="335" y="400" width="110" height="20" as="geometry" />
        </mxCell>
        <mxCell id="KWstcczz9pRLR9bCZHfC-38" value="复制请求为http请求" style="text;html=1;align=center;verticalAlign=middle;resizable=0;points=[];autosize=1;" vertex="1" parent="KWstcczz9pRLR9bCZHfC-22">
          <mxGeometry x="20" y="90" width="120" height="20" as="geometry" />
        </mxCell>
        <mxCell id="KWstcczz9pRLR9bCZHfC-44" value="复制请求" style="text;html=1;align=center;verticalAlign=middle;resizable=0;points=[];autosize=1;" vertex="1" parent="KWstcczz9pRLR9bCZHfC-22">
          <mxGeometry x="240" y="240" width="60" height="20" as="geometry" />
        </mxCell>
        <mxCell id="KWstcczz9pRLR9bCZHfC-45" value="假如：&lt;br&gt;server01写入了client的请求，&lt;br&gt;server01和server02相互发送请求，这就会造成死循环&lt;br&gt;所以可以在复制请求的头部放入HEADER_REPLICATION，声明这是个复制请求，&lt;br&gt;则接受到该请求的地址就不会想原地址发送复制请求 了" style="text;html=1;align=left;verticalAlign=middle;resizable=0;points=[];autosize=1;" vertex="1" parent="KWstcczz9pRLR9bCZHfC-22">
          <mxGeometry x="70" y="580" width="450" height="70" as="geometry" />
        </mxCell>
        <mxCell id="KWstcczz9pRLR9bCZHfC-27" style="edgeStyle=orthogonalEdgeStyle;rounded=0;orthogonalLoop=1;jettySize=auto;html=1;fillColor=#f8cecc;strokeColor=#b85450;fontFamily=Helvetica;horizontal=1;" edge="1" parent="KWstcczz9pRLR9bCZHfC-22" source="KWstcczz9pRLR9bCZHfC-24" target="KWstcczz9pRLR9bCZHfC-25">
          <mxGeometry relative="1" as="geometry" />
        </mxCell>
        <mxCell id="KWstcczz9pRLR9bCZHfC-28" value="请求" style="text;html=1;align=center;verticalAlign=middle;resizable=0;points=[];autosize=1;" vertex="1" parent="1">
          <mxGeometry x="340" y="1120" width="40" height="20" as="geometry" />
        </mxCell>
      </root>
    </mxGraphModel>
  </diagram>
</mxfile>
